<?xml version="1.0" standalone="no"?>
<!DOCTYPE svg PUBLIC "-//W3C//DTD SVG 20010904//EN"
 "http://www.w3.org/TR/2001/REC-SVG-20010904/DTD/svg10.dtd">
<svg version="1.0" xmlns="http://www.w3.org/2000/svg"
 width="480.000000pt" height="480.000000pt" viewBox="0 0 480.000000 480.000000"
 preserveAspectRatio="xMidYMid meet">
<metadata>
Created by potrace 1.14, written by Peter Selinger 2001-2017
</metadata>
<g transform="translate(0.000000,480.000000) scale(0.100000,-0.100000)"
fill="#000000" stroke="none">
<path d="M1478 4334 c-27 -8 -48 -19 -48 -24 0 -6 -7 -10 -15 -10 -8 0 -15 -3
-15 -7 0 -5 -14 -23 -31 -40 -16 -18 -27 -33 -23 -33 4 0 0 -8 -8 -17 -9 -10
-24 -44 -34 -75 -19 -58 -19 -58 -74 -73 -163 -45 -222 -86 -416 -292 -211
-222 -239 -261 -281 -379 -25 -72 -28 -91 -27 -209 1 -92 8 -157 23 -224 25
-111 53 -155 105 -165 20 -4 38 -11 41 -16 6 -10 23 -100 30 -160 3 -19 7 -46
10 -60 3 -14 8 -38 10 -55 3 -16 8 -46 11 -65 3 -19 8 -46 10 -60 2 -14 7 -41
10 -60 3 -19 8 -46 10 -60 2 -14 7 -41 10 -60 6 -34 8 -47 19 -107 3 -16 12
-71 20 -123 9 -52 18 -111 22 -130 11 -60 11 -64 17 -100 3 -19 8 -46 10 -60
24 -135 56 -332 60 -360 23 -172 58 -297 112 -406 116 -237 326 -391 584 -431
45 -7 333 -6 620 2 85 2 274 7 420 10 816 16 787 15 880 40 242 66 439 276
494 526 3 14 11 26 18 26 134 6 276 62 307 121 5 9 14 51 21 92 6 41 13 86 16
100 17 106 16 149 -7 197 -12 26 -34 64 -49 83 -82 107 -200 332 -258 490 -71
198 -159 567 -197 835 -4 22 -8 47 -11 56 -3 10 8 29 24 45 51 52 65 81 66
144 1 33 -1 60 -4 60 -4 0 -13 30 -20 68 -8 37 -15 72 -17 77 -1 6 -7 29 -13
53 -24 98 -103 230 -196 328 -103 108 -260 194 -415 228 -20 4 -29 16 -39 48
-46 147 -126 226 -232 234 -128 8 -241 -85 -276 -226 l-8 -35 -466 -2 -466 -1
-5 28 c-10 46 -56 135 -90 172 -60 64 -155 89 -239 62z"/>
</g>
</svg>
